<svg xmlns="http://www.w3.org/2000/svg" width="124" height="29" viewBox="0 0 124 29" fill="none"><path d="M45.972 25.468C44.268 25.468 42.708 25.036 41.292 24.172C39.9 23.284 38.784 22.108 37.944 20.644C37.128 19.156 36.72 17.512 36.72 15.712C36.72 14.368 36.96 13.108 37.44 11.932C37.92 10.732 38.58 9.688 39.42 8.8C40.26 7.888 41.232 7.18 42.336 6.676C43.464 6.148 44.676 5.884 45.972 5.884C47.604 5.884 48.876 6.196 49.788 6.82C50.7 7.42 51.408 8.224 51.912 9.232V6.28H56.736V25H52.02V21.94C51.516 22.996 50.796 23.848 49.86 24.496C48.948 25.144 47.652 25.468 45.972 25.468ZM46.764 21.076C47.844 21.076 48.768 20.836 49.536 20.356C50.328 19.852 50.94 19.192 51.372 18.376C51.804 17.56 52.02 16.672 52.02 15.712C52.02 14.728 51.804 13.828 51.372 13.012C50.94 12.196 50.328 11.536 49.536 11.032C48.768 10.528 47.844 10.276 46.764 10.276C45.732 10.276 44.82 10.528 44.028 11.032C43.26 11.512 42.66 12.16 42.228 12.976C41.796 13.792 41.58 14.692 41.58 15.676C41.58 16.612 41.796 17.5 42.228 18.34C42.66 19.156 43.26 19.816 44.028 20.32C44.82 20.824 45.732 21.076 46.764 21.076ZM59.6236 25V6.28H64.4116V9.016C65.3956 6.904 67.3036 5.848 70.1356 5.848C71.4796 5.848 72.6916 6.16 73.7716 6.784C74.8516 7.408 75.7036 8.296 76.3276 9.448C76.9516 10.6 77.2636 11.968 77.2636 13.552V25H72.4036V14.74C72.4036 13.108 72.0316 11.932 71.2876 11.212C70.5436 10.468 69.5716 10.096 68.3716 10.096C67.3396 10.096 66.4276 10.468 65.6356 11.212C64.8676 11.932 64.4836 13.108 64.4836 14.74V25H59.6236ZM86.7547 25C84.9067 25 83.4907 24.544 82.5067 23.632C81.5227 22.72 81.0307 21.244 81.0307 19.204V10.42H78.4027V6.28H81.0307V2.5L85.8907 1.996V6.28H89.8507V10.42H85.8907V18.952C85.8907 20.104 86.3947 20.68 87.4027 20.68H89.4187V25H86.7547ZM91.4752 25V6.28H96.1912V9.844C96.5032 8.5 97.1392 7.48 98.0992 6.784C99.0592 6.064 100.355 5.752 101.987 5.848V10.42H101.303C99.9112 10.42 98.7352 10.864 97.7752 11.752C96.8152 12.64 96.3352 13.864 96.3352 15.424V25H91.4752ZM111.222 25.468C109.518 25.468 107.958 25.036 106.542 24.172C105.15 23.284 104.034 22.108 103.194 20.644C102.378 19.156 101.97 17.512 101.97 15.712C101.97 14.368 102.21 13.108 102.69 11.932C103.17 10.732 103.83 9.688 104.67 8.8C105.51 7.888 106.482 7.18 107.586 6.676C108.714 6.148 109.926 5.884 111.222 5.884C112.854 5.884 114.126 6.196 115.038 6.82C115.95 7.42 116.658 8.224 117.162 9.232V6.28H121.986V25H117.27V21.94C116.766 22.996 116.046 23.848 115.11 24.496C114.198 25.144 112.902 25.468 111.222 25.468ZM112.014 21.076C113.094 21.076 114.018 20.836 114.786 20.356C115.578 19.852 116.19 19.192 116.622 18.376C117.054 17.56 117.27 16.672 117.27 15.712C117.27 14.728 117.054 13.828 116.622 13.012C116.19 12.196 115.578 11.536 114.786 11.032C114.018 10.528 113.094 10.276 112.014 10.276C110.982 10.276 110.07 10.528 109.278 11.032C108.51 11.512 107.91 12.16 107.478 12.976C107.046 13.792 106.83 14.692 106.83 15.676C106.83 16.612 107.046 17.5 107.478 18.34C107.91 19.156 108.51 19.816 109.278 20.32C110.07 20.824 110.982 21.076 112.014 21.076Z" fill="white"></path><g clip-path="url(#clip0_32_1709)"><path d="M7.75853 9.85816V17.021L11.2944 18.8923L13.9104 20.2826L16.5324 18.8923L20.6715 16.6983L28 12.8148V21.4735L22.0811 24.6061L13.785 29L7.75853 25.8087L5.62031 24.6765L0 21.6964V13.9118L0.943686 13.4132L7.70478 9.82883L5.50085 8.66143L0 5.74586V5.13576L7.5913 1.11146L7.75853 1.19946L13.6715 4.33794L19.9727 1L22.1707 2.1674L28 5.25309V5.52294L21.9556 8.72596L13.785 13.0494L7.75853 9.85816Z" fill="#CAA05C"></path></g><defs><clipPath id="clip0_32_1709"><rect width="28" height="28" fill="white" transform="translate(0 1)"></rect></clipPath></defs></svg>